<?xml version="1.0" encoding="utf-8"?>
<!-- Generator: Adobe Illustrator 16.0.0, SVG Export Plug-In . SVG Version: 6.00 Build 0)  -->
<!DOCTYPE svg PUBLIC "-//W3C//DTD SVG 1.1//EN" "http://www.w3.org/Graphics/SVG/1.1/DTD/svg11.dtd">
<svg version="1.1" id="Layer_1" xmlns="http://www.w3.org/2000/svg" xmlns:xlink="http://www.w3.org/1999/xlink" x="0px" y="0px"
	 width="1451.34px" height="1451.34px" viewBox="0 0 1451.34 1451.34" enable-background="new 0 0 1451.34 1451.34"
	 xml:space="preserve">
<!--<rect fill="#6e408d" width="1451.34" height="1451.34"/>-->
<g>
	<path fill="#FFFFFF" d="M850.041,1258.202c-17.497-2.501-30.629-7.063-39.377-13.741c-8.749-6.66-14.369-16.037-16.861-28.119
		c-2.51-12.074-3.764-28.128-3.764-48.117V837.033c0-14.996,0.205-32.682,0.635-53.109c0.413-20.41,1.031-42.067,1.874-64.987
		c0.825-22.911,2.063-46.029,3.747-69.361c1.667-23.315,3.746-45.401,6.256-66.241l-12.512-9.995
		c-9.179,4.177-22.705,8.749-40.615,13.75c-17.922,4.993-38.505,9.746-61.236,16.242c-43.743,12.496-39.97,43.21-35.75,113.302
		c-1.306,63.999-32.124,76.993-32.829,104.132c-0.584,22.387,14.67,34.238,35.467,36.446v259.767c0,31.678-1.47,56.866-4.375,75.609
		c-2.931,18.752-8.963,33.551-18.125,44.37c-9.178,10.837-21.872,18.554-38.114,23.118c-16.251,4.589-38.123,8.129-65.614,10.621
		l2.501,39.996c23.315,0,50.394-0.412,81.229-1.246c30.818-0.824,62.486-1.254,94.979-1.254c39.992,0,78.732,0.43,116.236,1.254
		c37.486,0.834,69.559,1.246,96.217,1.246l2.51-46.243C891.688,1262.791,867.538,1260.703,850.041,1258.202z"/>
	<path fill="#FFCB05" d="M717.106,523.349c0,0,30.427,17.634,61.605-26.4c52.096-87.581-70.491-212.389-26.4-316.805
		c44.087-104.416-64.802,96.148-88.006,193.603C653.34,426.229,652.609,488.569,717.106,523.349z"/>
</g>
</svg>
