<svg class="svg-logo" xmlns="http://www.w3.org/2000/svg" viewBox="0 0 724.228 278.844">
  <path d="M187.702 66.19c0-4.027.74-7.837 2.22-11.425 1.478-3.588 3.493-6.704 6.042-9.348 2.55-2.644 5.555-4.736 9.018-6.28 3.46-1.54 7.176-2.312 11.142-2.312 4.28 0 8.183.74 11.708 2.22 3.525 1.48 6.53 3.493 9.018 6.042 2.486 2.55 4.405 5.54 5.76 8.97 1.353 3.432 2.03 7.098 2.03 11 0 4.093-.74 7.917-2.22 11.473-1.478 3.558-3.493 6.657-6.042 9.3s-5.57 4.738-9.065 6.28c-3.494 1.542-7.223 2.313-11.19 2.313-4.28 0-8.166-.74-11.66-2.22-3.495-1.478-6.485-3.493-8.97-6.043-2.488-2.55-4.408-5.538-5.76-8.97-1.356-3.43-2.03-7.095-2.03-11zm29.65 23.607c2.768 0 5.145-.66 7.128-1.983 1.983-1.32 3.62-3.02 4.91-5.1 1.29-2.076 2.233-4.404 2.833-6.986.598-2.58.897-5.16.897-7.742 0-3.02-.33-6.105-.99-9.254-.662-3.147-1.717-5.996-3.164-8.545-1.45-2.55-3.32-4.642-5.618-6.28-2.3-1.635-5.084-2.454-8.357-2.454-2.83 0-5.24.646-7.22 1.936-1.98 1.29-3.6 2.97-4.86 5.05-1.26 2.07-2.19 4.4-2.78 6.98-.6 2.58-.89 5.16-.89 7.74 0 2.89.35 5.91 1.04 9.06.69 3.15 1.76 6.01 3.21 8.59s3.32 4.72 5.62 6.42c2.3 1.7 5.05 2.55 8.26 2.55zm60.248 2.738c-1.006 0-2.218-.015-3.634-.047-1.417-.03-2.943-.048-4.58-.048-1.638 0-3.305-.015-5.004-.047-1.7-.03-3.305-.047-4.815-.047-2.455 0-4.816.032-7.082.094-2.266.063-4.28.095-6.043.095l-.283-3.02c2.07-.19 3.72-.457 4.95-.804 1.23-.34 2.17-.92 2.83-1.74.66-.81 1.1-1.93 1.32-3.35.22-1.41.33-3.32.33-5.71V53.45c0-1.76-.1-3.146-.29-4.154-.19-1.007-.59-1.81-1.18-2.41-.6-.597-1.5-1.053-2.69-1.37-1.2-.312-2.81-.626-4.82-.942l-.29-2.643c1.7-.31 3.46-.67 5.29-1.08 1.82-.41 3.59-.85 5.29-1.32s3.29-.94 4.77-1.42c1.47-.47 2.69-.9 3.63-1.27l1.13.76c-.32 1.95-.51 3.89-.57 5.81-.06 1.92-.09 3.83-.09 5.72 2.01-2.46 3.79-4.49 5.33-6.09 1.54-1.61 2.95-2.87 4.25-3.78 1.29-.91 2.47-1.54 3.54-1.89 1.07-.34 2.17-.52 3.3-.52.81 0 1.66.1 2.55.28.88.19 1.7.51 2.45.95.75.44 1.37.99 1.84 1.65s.71 1.46.71 2.41c0 1.26-.79 2.64-2.36 4.16-1.58 1.51-3.31 2.9-5.19 4.16-1.13-1.01-2.21-1.78-3.21-2.32-1.01-.53-2.24-.8-3.68-.8-1.45 0-3.02.63-4.72 1.89-1.7 1.26-3.09 3.08-4.16 5.47-.32.7-.51 1.31-.57 1.84-.07.54-.1 1.25-.1 2.13V81.8c0 1.51.11 2.72.33 3.632.22.91.74 1.62 1.56 2.12.81.5 2.01.85 3.59 1.03 1.57.184 3.74.343 6.51.47l-.2 3.49zm44.387-37.77c-.188-1.95-.677-3.76-1.463-5.43-.788-1.665-1.827-3.1-3.116-4.294-1.29-1.19-2.786-2.12-4.485-2.78s-3.526-.99-5.477-.99c-1.197 0-2.346.19-3.446.57-1.103.38-2.078.92-2.927 1.61-.85.7-1.527 1.56-2.03 2.6-.504 1.04-.755 2.22-.755 3.54 0 1.58.393 2.95 1.18 4.11.787 1.17 1.825 2.21 3.116 3.12 1.29.92 2.77 1.72 4.438 2.41 1.667.7 3.383 1.39 5.146 2.08 1.95.82 3.886 1.69 5.807 2.6 1.92.92 3.635 1.98 5.146 3.21s2.73 2.69 3.64 4.39c.91 1.7 1.37 3.72 1.37 6.05 0 2.96-.63 5.5-1.89 7.6-1.26 2.11-2.89 3.86-4.91 5.24-2.01 1.39-4.29 2.41-6.84 3.07-2.55.66-5.11.99-7.69.99-1.64 0-3.29-.12-4.95-.38-1.67-.25-3.22-.53-4.67-.85-1.32-.31-2.6-.61-3.82-.89s-2.56-.48-4.01-.61c-.06-1.07-.17-2.42-.33-4.06-.16-1.63-.33-3.3-.52-5-.19-1.7-.39-3.32-.61-4.86-.22-1.54-.45-2.75-.7-3.63l3.21-.85c.88 2.14 1.86 4.22 2.93 6.23 1.07 2.02 2.35 3.8 3.83 5.34 1.48 1.55 3.16 2.79 5.05 3.73 1.89.95 4.13 1.42 6.71 1.42 2.46 0 4.63-.67 6.52-2.03 1.89-1.35 2.83-3.41 2.83-6.18 0-1.57-.36-2.97-1.08-4.2-.72-1.23-1.7-2.31-2.93-3.26s-2.61-1.78-4.16-2.5c-1.54-.72-3.16-1.43-4.86-2.12-1.95-.82-3.89-1.68-5.81-2.6-1.92-.91-3.63-1.98-5.14-3.21s-2.74-2.69-3.68-4.39c-.94-1.7-1.41-3.74-1.41-6.14 0-2.89.62-5.38 1.84-7.46 1.23-2.07 2.8-3.79 4.72-5.14 1.92-1.35 4.11-2.34 6.56-2.97 2.46-.63 4.91-.94 7.37-.94 2.52 0 5.02.26 7.51.76 2.49.51 5.31.82 8.45.95-.18 2.02-.31 3.92-.37 5.72-.06 1.79-.09 3.73-.09 5.81v4.62l-3.11.1zm54.963 27.29c-2.016 2.644-4.094 4.77-6.232 6.373-2.14 1.605-4.188 2.85-6.14 3.73s-3.745 1.478-5.38 1.793c-1.64.32-2.928.48-3.87.48-3.968 0-7.59-.75-10.86-2.26-3.273-1.51-6.076-3.54-8.404-6.09-2.33-2.55-4.14-5.54-5.43-8.97-1.29-3.43-1.935-7.06-1.935-10.9 0-4.15.77-8.01 2.31-11.56 1.54-3.55 3.57-6.65 6.09-9.3s5.41-4.72 8.69-6.23c3.27-1.51 6.67-2.26 10.19-2.26 2.83 0 5.54.46 8.12 1.37 2.58.91 4.83 2.22 6.75 3.92s3.46 3.75 4.63 6.14c1.16 2.39 1.75 5.07 1.75 8.03v1.32c0 .82-.04 1.26-.1 1.32-.32 1.7-1.2 2.55-2.65 2.55H338.8c.064 4.34.724 8.06 1.983 11.14 1.26 3.09 2.88 5.61 4.863 7.56s4.203 3.38 6.658 4.29c2.455.92 4.877 1.37 7.27 1.37 2.58 0 5.035-.44 7.365-1.32 2.32-.88 4.78-2.61 7.36-5.19l2.64 2.74zM362.976 57.22c1.258 0 2.076-.235 2.455-.707.38-.473.57-1.275.57-2.408 0-1.7-.3-3.305-.9-4.815s-1.44-2.833-2.55-3.966-2.45-2.014-4.06-2.644c-1.6-.628-3.38-.944-5.33-.944-1.51 0-3.01.347-4.48 1.04-1.48.692-2.86 1.7-4.15 3.02-1.29 1.322-2.41 2.943-3.35 4.863-.94 1.92-1.6 4.1-1.98 6.56H363zM179.95 65.436c-1.637 3.966-3.29 7.412-4.956 10.34-1.67 2.927-3.635 5.397-5.902 7.412-2.393 2.14-5.146 3.683-8.262 4.626-3.116.944-6.374 1.417-9.773 1.417-6.232 0-11.646-1.14-16.24-3.44-4.597-2.3-8.42-5.41-11.474-9.35-3.054-3.93-5.335-8.56-6.846-13.88-1.51-5.31-2.266-11-2.266-17.04 0-6.04.84-11.56 2.51-16.57 1.67-5 4.12-9.28 7.37-12.84 3.24-3.55 7.26-6.32 12.04-8.31 4.78-1.98 10.32-2.97 16.62-2.97 3.21 0 6.17.43 8.88 1.28 2.71.85 5.09 2.17 7.13 3.97 2.05 1.8 3.68 4.06 4.91 6.8s1.97 5.97 2.22 9.68l3.97-.37c0-4.03.05-7.85.15-11.47.1-3.62.33-7.44.71-11.47-3.78-1-7.85-1.79-12.23-2.36-4.37-.57-8.48-.85-12.32-.85-7.43 0-14.48.99-21.15 2.98-6.67 1.99-12.54 4.99-17.61 9.02-5.06 4.03-9.08 9.05-12.04 15.06-2.95 6.02-4.43 13.05-4.43 21.11 0 6.98 1.23 13.33 3.68 19.02 1.59 3.69 3.59 7.02 5.98 10.01-2.89-.55-5.87-1.03-8.96-1.43-6.58-.85-12.76-1.28-18.53-1.28-11.17 0-21.77 1.49-31.81 4.48-10.04 2.98-18.87 7.5-26.49 13.56-7.62 6.06-13.66 13.61-18.11 22.65-4.49 9-6.72 19.58-6.72 31.7 0 10.51 1.85 20.05 5.54 28.61 3.69 8.57 8.83 15.89 15.41 21.94 6.58 6.06 14.39 10.75 23.44 14.06 9.04 3.32 18.91 4.97 29.61 4.97 7.39 0 14.75-.61 22.09-1.84s14.75-2.93 22.23-5.11c.66-6.25 1.47-12.12 2.42-17.61s2.23-11.36 3.84-17.61l-5.68-1.42c-2.47 5.96-4.95 11.15-7.46 15.55s-5.47 8.12-8.88 11.15c-3.6 3.22-7.74 5.54-12.43 6.96s-9.59 2.13-14.7 2.13c-9.37 0-17.52-1.73-24.43-5.19s-12.67-8.15-17.26-14.06c-4.6-5.92-8.03-12.88-10.3-20.88-2.27-8-3.41-16.55-3.41-25.64s1.25-17.39 3.76-24.92c2.5-7.52 6.2-13.96 11.07-19.31 4.87-5.35 10.91-9.52 18.1-12.5 7.2-2.98 15.53-4.47 25-4.47 4.83 0 9.28.64 13.35 1.92 4.07 1.28 7.64 3.27 10.72 5.97 3.08 2.7 5.54 6.11 7.39 10.23s2.96 8.97 3.34 14.56l5.965-.57c0-6.06.07-11.81.21-17.25.09-3.56.287-7.26.56-11.08 3.28 2.28 6.92 4.17 10.93 5.64 6.01 2.2 12.573 3.31 19.69 3.31 4.91 0 9.8-.41 14.68-1.23 4.877-.814 9.804-1.95 14.777-3.4.44-4.15.976-8.053 1.606-11.71.62-3.65 1.47-7.56 2.54-11.71l-3.78-.95z"/>
  <path d="M130.523 174.036c0-6.058 1.112-11.787 3.337-17.185 2.223-5.39 5.254-10.08 9.09-14.05 3.833-3.97 8.353-7.12 13.562-9.44 5.206-2.32 10.793-3.48 16.758-3.48 6.437 0 12.307 1.12 17.61 3.34 5.3 2.23 9.82 5.26 13.563 9.09 3.74 3.84 6.626 8.34 8.663 13.49 2.035 5.17 3.053 10.68 3.053 16.55 0 6.16-1.12 11.91-3.34 17.26-2.23 5.35-5.26 10.01-9.09 13.99s-8.38 7.13-13.64 9.45c-5.26 2.32-10.87 3.48-16.83 3.48-6.44 0-12.29-1.11-17.54-3.34-5.26-2.22-9.75-5.25-13.49-9.08s-6.63-8.33-8.67-13.49-3.06-10.67-3.06-16.54zm44.593 35.504c4.165 0 7.74-.994 10.722-2.982s5.443-4.545 7.385-7.67c1.94-3.123 3.36-6.625 4.26-10.508.9-3.882 1.35-7.763 1.35-11.646 0-4.545-.497-9.183-1.49-13.918-.995-4.732-2.582-9.018-4.76-12.853-2.178-3.834-4.994-6.98-8.45-9.443-3.457-2.46-7.646-3.692-12.567-3.692-4.26 0-7.882.972-10.864 2.91-2.982 1.942-5.42 4.475-7.314 7.6-1.895 3.123-3.29 6.627-4.19 10.508-.9 3.884-1.348 7.765-1.348 11.646 0 4.356.52 8.9 1.563 13.634 1.04 4.735 2.65 9.042 4.828 12.923 2.18 3.88 5 7.1 8.45 9.65 3.46 2.55 7.6 3.83 12.43 3.83zm86.214 4.118c-3.03 0-6.438-.047-10.224-.142-3.788-.094-7.953-.143-12.497-.143-3.7 0-7.37.05-11.01.143-3.65.095-6.8.142-9.45.142l-.43-4.545c3.22-.283 5.8-.71 7.74-1.277 1.94-.568 3.45-1.442 4.54-2.628 1.08-1.183 1.79-2.84 2.13-4.97.33-2.13.49-4.993.49-8.593v-36.78c0-2.65-.14-4.734-.43-6.25-.29-1.514-.88-2.72-1.78-3.62-.9-.9-2.23-1.586-3.98-2.06s-4.05-.946-6.89-1.42l-.43-3.978c2.37-.473 4.9-1.04 7.6-1.704 2.7-.66 5.33-1.35 7.88-2.06s4.95-1.396 7.17-2.06c2.22-.66 4.05-1.277 5.47-1.846l1.7 1.136c-.29 1.988-.52 3.954-.71 5.894-.19 1.942-.29 3.906-.29 5.895 5.11-4.07 10.53-7.243 16.26-9.516 5.73-2.272 11.2-3.408 16.41-3.408 3.4 0 6.6.546 9.58 1.633 2.98 1.09 5.56 2.82 7.74 5.19 2.18 2.37 3.9 5.38 5.18 9.02 1.27 3.65 1.91 8.07 1.91 13.28v38.49c0 2.27.14 4.1.42 5.47.28 1.38.87 2.44 1.77 3.2.9.76 2.25 1.28 4.05 1.57 1.8.29 4.21.52 7.24.71l-.29 5.26c-3.03 0-6.37-.04-10.01-.14-3.65-.09-7.74-.14-12.29-.14-3.69 0-7.22.05-10.58.15-3.36.1-6.37.14-9.01.14l-.43-4.54c2.93-.28 5.3-.66 7.1-1.13 1.8-.47 3.17-1.25 4.12-2.34.942-1.09 1.56-2.65 1.843-4.68.28-2.04.425-4.85.425-8.45v-29.97c0-7.57-1.68-13.04-5.04-16.4-3.36-3.36-7.59-5.04-12.71-5.04-3.596 0-7.43.74-11.5 2.2-4.07 1.47-8.14 3.53-12.21 6.18v48c0 2.28.12 4.1.353 5.47.233 1.38.83 2.44 1.773 3.2.94.76 2.34 1.28 4.19 1.57s4.33.52 7.45.71l-.43 5.26zm130.1-18.036c-1.612 3.315-3.693 6.25-6.25 8.805-2.556 2.557-5.374 4.735-8.45 6.533-3.077 1.8-6.32 3.17-9.728 4.118-3.408.945-6.816 1.42-10.226 1.42-5.68 0-10.888-1.113-15.62-3.337-4.736-2.22-8.806-5.18-12.214-8.87s-6.06-7.97-7.953-12.85c-1.9-4.87-2.84-10.01-2.84-15.41 0-6.53 1.3-12.59 3.9-18.18 2.6-5.58 6.1-10.46 10.51-14.62 4.4-4.16 9.49-7.43 15.26-9.8 5.77-2.36 11.88-3.55 18.32-3.55 3.12 0 6.27.29 9.44.85 3.17.57 6.27 1.66 9.3 3.27 1.32.67 2.24 1.54 2.77 2.63.52 1.09.78 2.16.78 3.2 0 1.71-.67 3.48-1.99 5.33-1.33 1.85-3.51 3.53-6.54 5.04h-.71c-3.51-3.6-6.87-6.25-10.09-7.95-3.22-1.7-6.96-2.55-11.22-2.55-3.98 0-7.46.81-10.44 2.41-2.98 1.61-5.47 3.74-7.46 6.39-1.99 2.65-3.51 5.71-4.55 9.16-1.04 3.46-1.56 7.03-1.56 10.73 0 4.64.68 9.09 2.06 13.35 1.37 4.26 3.33 8 5.89 11.22 2.56 3.22 5.7 5.8 9.44 7.74 3.74 1.94 8.02 2.91 12.85 2.91 4.55 0 8.9-.94 13.07-2.84 4.16-1.89 7.52-4.83 10.08-8.8l4.12 3.7zm111.93 2.273c-3.032 3.977-6.156 7.172-9.374 9.586-3.22 2.42-6.298 4.29-9.23 5.61-2.937 1.33-5.635 2.23-8.096 2.7-2.463.48-4.402.71-5.822.71-5.965 0-11.41-1.13-16.332-3.41-4.924-2.27-9.138-5.32-12.64-9.16-3.503-3.83-6.227-8.33-8.165-13.49-1.94-5.16-2.91-10.62-2.91-16.4 0-6.25 1.16-12.04 3.48-17.39 2.32-5.34 5.37-10.01 9.16-13.98 3.79-3.97 8.14-7.1 13.07-9.37 4.92-2.27 10.04-3.41 15.34-3.41 4.26 0 8.33.69 12.22 2.06 3.88 1.38 7.27 3.34 10.16 5.9s5.21 5.64 6.96 9.23c1.75 3.6 2.63 7.62 2.63 12.07v1.99c0 1.23-.05 1.9-.14 1.99-.47 2.56-1.8 3.84-3.97 3.84H446c.09 6.53 1.085 12.12 2.98 16.76 1.893 4.64 4.33 8.43 7.313 11.36 2.984 2.94 6.32 5.09 10.014 6.46 3.693 1.38 7.337 2.06 10.937 2.06 3.88 0 7.573-.66 11.077-1.99 3.5-1.32 7.2-3.93 11.08-7.81l3.98 4.12zm-21.02-37.35c1.894 0 3.126-.355 3.693-1.065.568-.71.853-1.917.853-3.622 0-2.556-.45-4.97-1.35-7.242-.9-2.272-2.18-4.26-3.834-5.965-1.658-1.7-3.692-3.02-6.106-3.97-2.415-.94-5.09-1.42-8.024-1.42-2.272 0-4.522.52-6.746 1.57-2.226 1.05-4.31 2.56-6.248 4.55-1.94 1.99-3.62 4.43-5.042 7.32-1.42 2.89-2.414 6.18-2.982 9.87h35.787zm69.316 53.113c-1.516 0-3.338-.022-5.468-.07-2.13-.047-4.427-.07-6.888-.07-2.463 0-4.97-.023-7.527-.072-2.556-.047-4.97-.07-7.242-.07-3.69 0-7.24.048-10.65.142-3.4.095-6.44.142-9.09.142l-.42-4.545c3.13-.283 5.61-.686 7.46-1.207 1.85-.52 3.27-1.396 4.26-2.627 1-1.22 1.66-2.91 1.99-5.04.33-2.13.5-4.99.5-8.59v-36.78c0-2.65-.14-4.73-.42-6.25-.28-1.51-.87-2.72-1.77-3.62-.9-.9-2.25-1.58-4.05-2.06-1.8-.47-4.21-.94-7.24-1.42l-.43-3.98c2.56-.47 5.21-1.01 7.96-1.63 2.75-.61 5.4-1.27 7.96-1.98 2.56-.71 4.95-1.42 7.17-2.13s4.05-1.35 5.47-1.92l1.71 1.14c-.47 2.94-.76 5.85-.85 8.74-.1 2.89-.14 5.76-.14 8.6 3.03-3.69 5.7-6.74 8.03-9.16 2.32-2.41 4.45-4.3 6.39-5.68 1.94-1.37 3.72-2.32 5.33-2.84 1.61-.52 3.27-.78 4.97-.78 1.23 0 2.51.15 3.84.43 1.33.29 2.56.76 3.69 1.42 1.14.67 2.06 1.49 2.77 2.49s1.07 2.2 1.07 3.63c0 1.9-1.18 3.98-3.55 6.25s-4.97 4.36-7.81 6.25c-1.7-1.51-3.31-2.67-4.83-3.48-1.51-.8-3.36-1.21-5.54-1.21s-4.54.95-7.1 2.84c-2.56 1.9-4.64 4.64-6.25 8.24-.48 1.05-.76 1.97-.86 2.77-.1.81-.14 1.87-.14 3.2v34.79c0 2.27.16 4.1.5 5.47.33 1.38 1.11 2.44 2.34 3.2 1.23.76 3.03 1.28 5.4 1.57 2.37.28 5.64.52 9.8.71l-.28 5.25zm17.054-50.132c0-4.732.97-9.16 2.91-13.278 1.94-4.118 4.545-7.69 7.812-10.722 3.267-3.03 7.03-5.396 11.29-7.1 4.26-1.706 8.756-2.558 13.49-2.558 7.575 0 14.107 1.61 19.6 4.828 1.04.664 2.01 1.114 2.91 1.35.9.237 1.965.354 3.196.354 1.04-.093 1.798-.142 2.272-.142l21.73-1.563.993 1.137-.853 8.236h-20.024c3.882 5.02 5.823 10.56 5.823 16.616 0 5.587-1.12 10.51-3.34 14.77-2.23 4.26-5.11 7.835-8.67 10.722-3.55 2.89-7.48 5.066-11.79 6.533-4.31 1.46-8.55 2.2-12.71 2.2-3.69 0-7.62-.48-11.79-1.42-2.18 1.04-4 2.58-5.47 4.61-1.47 2.03-2.2 3.95-2.2 5.75 0 1.32.49 2.48 1.49 3.48s2.22 1.82 3.69 2.48 3.03 1.13 4.69 1.42c1.65.28 3.14.42 4.47.42 3.69 0 7.54-.07 11.57-.22 4.02-.14 7.78-.22 11.29-.22 3.78 0 7.57.35 11.36 1.06 3.78.71 7.22 1.99 10.3 3.83 3.07 1.85 5.56 4.38 7.45 7.6 1.89 3.22 2.84 7.29 2.84 12.21 0 5.96-1.33 11.57-3.98 16.82-2.66 5.26-6.35 9.8-11.08 13.64-4.74 3.83-10.39 6.86-16.97 9.09-6.58 2.22-13.8 3.33-21.66 3.33-4.07 0-8.26-.55-12.57-1.64-4.31-1.09-8.21-2.75-11.72-4.97-3.51-2.23-6.37-5.02-8.59-8.38-2.23-3.36-3.34-7.31-3.34-11.86 0-3.22.61-6.18 1.84-8.88 1.23-2.7 2.84-5.19 4.83-7.46 1.98-2.27 4.21-4.36 6.67-6.25 2.46-1.89 4.92-3.69 7.38-5.39-3.89-1.42-7.22-3.31-10.02-5.68-2.8-2.37-4.19-5.35-4.19-8.95 0-1.61.54-3.31 1.63-5.11 1.08-1.8 2.39-3.55 3.9-5.26 1.51-1.71 3.12-3.27 4.82-4.69 1.7-1.42 3.17-2.65 4.4-3.69-10.51-5.3-15.77-14.34-15.77-27.13zm37.918 62.203c-3.125 0-5.705.02-7.74.07-2.037.04-3.717.21-5.042.49-1.326.28-2.51.71-3.55 1.28-1.043.56-2.13 1.32-3.267 2.27-2.94 2.46-5.12 5.23-6.54 8.31-1.42 3.07-2.13 6.27-2.13 9.58 0 3.88.94 7.14 2.84 9.8 1.89 2.65 4.3 4.8 7.24 6.46 2.93 1.65 6.2 2.86 9.8 3.62 3.59.76 7.1 1.14 10.51 1.14 4.26 0 8.28-.45 12.07-1.35 3.78-.9 7.1-2.35 9.94-4.34 2.84-1.99 5.09-4.55 6.74-7.67 1.65-3.13 2.48-6.87 2.48-11.22 0-3.98-.85-7.29-2.56-9.94-1.71-2.66-4.17-4.64-7.39-5.97-2.75-1.23-5.78-1.97-9.09-2.2-3.31-.24-7.15-.36-11.5-.36h-2.84zm-.994-37.07c3.028 0 5.632-.71 7.81-2.13s3.953-3.27 5.326-5.54c1.372-2.27 2.39-4.83 3.054-7.67.66-2.84.994-5.63.994-8.38 0-3.41-.355-6.84-1.065-10.3-.71-3.46-1.846-6.56-3.408-9.31-1.563-2.75-3.6-4.97-6.106-6.68-2.51-1.71-5.61-2.56-9.31-2.56-3.13 0-5.78.69-7.96 2.06-2.18 1.37-3.96 3.19-5.33 5.46-1.38 2.27-2.37 4.81-2.98 7.6-.62 2.79-.93 5.61-.93 8.45 0 3.22.38 6.53 1.13 9.94.75 3.41 1.91 6.53 3.48 9.37 1.56 2.84 3.59 5.16 6.1 6.96 2.51 1.8 5.56 2.7 9.16 2.7z"/>
  <path d="M723.802 197.895c-3.03 3.977-6.155 7.172-9.373 9.586-3.22 2.42-6.3 4.29-9.24 5.61-2.94 1.33-5.64 2.23-8.1 2.7-2.47.48-4.4.71-5.82.71-5.97 0-11.41-1.13-16.33-3.41-4.93-2.27-9.14-5.32-12.64-9.16-3.51-3.83-6.23-8.33-8.17-13.49-1.95-5.16-2.92-10.62-2.92-16.4 0-6.25 1.16-12.04 3.48-17.39 2.32-5.34 5.37-10.01 9.16-13.98 3.78-3.97 8.14-7.1 13.06-9.37 4.92-2.27 10.03-3.41 15.34-3.41 4.26 0 8.33.69 12.21 2.06 3.88 1.38 7.26 3.34 10.15 5.9 2.89 2.56 5.21 5.64 6.96 9.23 1.75 3.6 2.63 7.62 2.63 12.07v1.99c0 1.23-.05 1.9-.14 1.99-.48 2.56-1.8 3.84-3.98 3.84H666.4c.095 6.53 1.09 12.12 2.984 16.76 1.89 4.64 4.33 8.43 7.31 11.36 2.983 2.94 6.32 5.09 10.013 6.46 3.69 1.38 7.335 2.06 10.935 2.06 3.88 0 7.57-.66 11.073-1.99 3.5-1.32 7.19-3.93 11.073-7.81l3.98 4.12zm-21.02-37.35c1.894 0 3.126-.355 3.693-1.065.568-.71.853-1.917.853-3.622 0-2.556-.45-4.97-1.35-7.242-.9-2.272-2.18-4.26-3.834-5.965-1.658-1.7-3.692-3.02-6.106-3.97-2.415-.94-5.09-1.42-8.024-1.42-2.272 0-4.522.52-6.746 1.57-2.226 1.05-4.31 2.56-6.248 4.55-1.94 1.99-3.62 4.43-5.042 7.32-1.42 2.89-2.414 6.18-2.982 9.87h35.787z"/>
  <g class="concierge__i">
    <path d="M424.813 207.693c-1.988-.284-3.48-.803-4.474-1.562-1-.75-1.64-1.82-1.92-3.19-.29-1.37-.43-3.19-.43-5.47v-37.63c0-1.7.02-3.71.07-6.03.05-2.32.12-4.78.21-7.38s.23-5.23.42-7.88c.19-2.64.42-5.15.71-7.52l-1.42-1.13c-1.05.48-2.58 1-4.62 1.56-2.04.57-4.38 1.11-6.96 1.85-4.97 1.42-4.54 4.91-4.06 12.88-.15 7.28-3.65 8.75-3.73 11.84-.07 2.55 1.66 3.89 4.03 4.15v29.52c0 3.6-.17 6.46-.5 8.59-.34 2.13-1.02 3.82-2.06 5.04-1.05 1.23-2.49 2.11-4.33 2.63-1.85.52-4.34.93-7.46 1.21l.28 4.55c2.65 0 5.73-.04 9.23-.14 3.5-.09 7.1-.14 10.79-.14 4.54 0 8.95.05 13.21.15 4.26.09 7.9.14 10.93.14l.28-5.26c-3.5-.19-6.25-.42-8.24-.71z"/>
    <path class="concierge__i__flame" d="M409.708 124.188s3.457 2.004 7-3c5.92-9.952-8.01-24.135-3-36s-7.363 10.926-10 22c-1.246 5.964-1.33 13.048 6 17z"/>
  </g>
</svg>